<svg width="29" height="28" viewBox="0 0 29 28" fill="none" xmlns="http://www.w3.org/2000/svg">
<path d="M11.6 2.88235C11.6 1.29047 12.8984 8.26163e-09 14.5 0C16.1016 -8.26163e-09 17.4 1.29047 17.4 2.88235V25.1176C17.4 26.7095 16.1016 28 14.5 28C12.8984 28 11.6 26.7095 11.6 25.1176V2.88235Z" fill="#BC1637"/>
<path d="M2.9 16.4706C1.29838 16.4706 5.42115e-08 15.1801 0 13.5882C-5.42113e-08 11.9964 1.29837 10.7059 2.9 10.7059H26.1C27.7016 10.7059 29 11.9964 29 13.5882C29 15.1801 27.7016 16.4706 26.1 16.4706L2.9 16.4706Z" fill="#BC1637"/>
</svg>
