<svg width="278" height="51" viewBox="0 0 278 51" fill="none" xmlns="http://www.w3.org/2000/svg">
<path d="M52.83 40.51C51.266 40.51 49.77 40.17 48.342 39.49C46.914 38.776 45.775 37.824 44.925 36.634L45.231 35.053V50.251H40.029V18.274H44.568L45.282 23.476L44.721 21.997C45.775 20.773 47.067 19.753 48.597 18.937C50.161 18.121 51.895 17.713 53.799 17.713C55.805 17.713 57.607 18.189 59.205 19.141C60.803 20.093 62.061 21.436 62.979 23.17C63.897 24.904 64.356 26.944 64.356 29.29C64.356 31.602 63.846 33.608 62.826 35.308C61.84 36.974 60.48 38.266 58.746 39.184C57.012 40.068 55.04 40.51 52.83 40.51ZM51.81 36.379C53.102 36.379 54.292 36.073 55.38 35.461C56.502 34.849 57.386 34.016 58.032 32.962C58.712 31.874 59.052 30.667 59.052 29.341C59.052 27.947 58.729 26.723 58.083 25.669C57.471 24.581 56.638 23.731 55.584 23.119C54.564 22.507 53.425 22.201 52.167 22.201C50.977 22.201 49.923 22.422 49.005 22.864C48.087 23.272 47.305 23.85 46.659 24.598C46.013 25.346 45.554 26.247 45.282 27.301V31.228C45.486 32.214 45.894 33.098 46.506 33.88C47.118 34.662 47.883 35.274 48.801 35.716C49.719 36.158 50.722 36.379 51.81 36.379Z" fill="black"/>
<path d="M70.5593 40V0.373001H75.6593V23.476L75.6083 22.609C76.3223 21.215 77.4103 20.059 78.8723 19.141C80.3343 18.223 82.0853 17.764 84.1253 17.764C86.1313 17.764 87.7803 18.359 89.0723 19.549C90.3983 20.739 91.0783 22.286 91.1123 24.19V40H85.8593V26.026C85.8253 24.938 85.5023 24.054 84.8903 23.374C84.2783 22.66 83.3263 22.286 82.0343 22.252C80.8783 22.252 79.8243 22.609 78.8723 23.323C77.9203 24.003 77.1723 24.955 76.6283 26.179C76.0843 27.369 75.8123 28.729 75.8123 30.259V40H70.5593Z" fill="black"/>
<path d="M108.072 40.51C106.066 40.51 104.247 40.102 102.615 39.286C100.983 38.436 99.6912 37.178 98.7392 35.512C97.7872 33.846 97.3112 31.789 97.3112 29.341C97.3112 26.927 97.8042 24.853 98.7902 23.119C99.8102 21.385 101.136 20.059 102.768 19.141C104.434 18.189 106.236 17.713 108.174 17.713C110.214 17.713 111.88 18.155 113.172 19.039C114.498 19.889 115.535 20.892 116.283 22.048L115.926 22.864L116.436 18.631H121.281V40H116.028V34.645L116.589 35.92C116.453 36.192 116.164 36.583 115.722 37.093C115.28 37.569 114.685 38.079 113.937 38.623C113.223 39.167 112.373 39.626 111.387 40C110.435 40.34 109.33 40.51 108.072 40.51ZM109.5 36.226C110.622 36.226 111.625 36.022 112.509 35.614C113.393 35.206 114.141 34.628 114.753 33.88C115.365 33.132 115.79 32.248 116.028 31.228V26.791C115.756 25.839 115.297 25.023 114.651 24.343C114.005 23.629 113.223 23.068 112.305 22.66C111.421 22.252 110.435 22.048 109.347 22.048C108.123 22.048 107.001 22.354 105.981 22.966C104.961 23.544 104.145 24.36 103.533 25.414C102.921 26.468 102.615 27.692 102.615 29.086C102.615 30.412 102.921 31.619 103.533 32.707C104.179 33.795 105.029 34.662 106.083 35.308C107.137 35.92 108.276 36.226 109.5 36.226Z" fill="black"/>
<path d="M134.021 18.631L134.531 24.751L134.276 23.935C134.854 22.643 135.67 21.538 136.724 20.62C137.778 19.702 138.866 19.005 139.988 18.529C141.144 18.019 142.113 17.764 142.895 17.764L142.64 22.966C141.008 22.864 139.58 23.17 138.356 23.884C137.166 24.598 136.231 25.55 135.551 26.74C134.871 27.93 134.531 29.205 134.531 30.565V40H129.329V18.631H134.021Z" fill="black"/>
<path d="M153.544 18.631L154.003 23.221L153.799 22.864C154.615 21.266 155.737 20.025 157.165 19.141C158.593 18.223 160.242 17.764 162.112 17.764C163.268 17.764 164.305 17.951 165.223 18.325C166.175 18.699 166.957 19.226 167.569 19.906C168.181 20.586 168.572 21.436 168.742 22.456L168.487 22.609C169.337 21.113 170.459 19.94 171.853 19.09C173.281 18.206 174.794 17.764 176.392 17.764C178.466 17.764 180.115 18.359 181.339 19.549C182.597 20.739 183.243 22.269 183.277 24.139V40H178.075V26.128C178.041 25.074 177.786 24.19 177.31 23.476C176.868 22.762 176.069 22.371 174.913 22.303C173.689 22.303 172.601 22.677 171.649 23.425C170.731 24.173 170.017 25.142 169.507 26.332C168.997 27.522 168.725 28.797 168.691 30.157V40H163.438V26.128C163.404 25.074 163.149 24.19 162.673 23.476C162.197 22.762 161.364 22.371 160.174 22.303C158.95 22.303 157.879 22.677 156.961 23.425C156.043 24.173 155.329 25.159 154.819 26.383C154.343 27.573 154.105 28.831 154.105 30.157V40H148.852V18.631H153.544Z" fill="black"/>
<path d="M200.261 40.51C198.255 40.51 196.436 40.102 194.804 39.286C193.172 38.436 191.88 37.178 190.928 35.512C189.976 33.846 189.5 31.789 189.5 29.341C189.5 26.927 189.993 24.853 190.979 23.119C191.999 21.385 193.325 20.059 194.957 19.141C196.623 18.189 198.425 17.713 200.363 17.713C202.403 17.713 204.069 18.155 205.361 19.039C206.687 19.889 207.724 20.892 208.472 22.048L208.115 22.864L208.625 18.631H213.47V40H208.217V34.645L208.778 35.92C208.642 36.192 208.353 36.583 207.911 37.093C207.469 37.569 206.874 38.079 206.126 38.623C205.412 39.167 204.562 39.626 203.576 40C202.624 40.34 201.519 40.51 200.261 40.51ZM201.689 36.226C202.811 36.226 203.814 36.022 204.698 35.614C205.582 35.206 206.33 34.628 206.942 33.88C207.554 33.132 207.979 32.248 208.217 31.228V26.791C207.945 25.839 207.486 25.023 206.84 24.343C206.194 23.629 205.412 23.068 204.494 22.66C203.61 22.252 202.624 22.048 201.536 22.048C200.312 22.048 199.19 22.354 198.17 22.966C197.15 23.544 196.334 24.36 195.722 25.414C195.11 26.468 194.804 27.692 194.804 29.086C194.804 30.412 195.11 31.619 195.722 32.707C196.368 33.795 197.218 34.662 198.272 35.308C199.326 35.92 200.465 36.226 201.689 36.226Z" fill="black"/>
<path d="M239.01 38.011C238.058 38.793 236.902 39.405 235.542 39.847C234.216 40.289 232.873 40.51 231.513 40.51C229.167 40.51 227.093 40.051 225.291 39.133C223.523 38.215 222.146 36.923 221.16 35.257C220.174 33.591 219.681 31.602 219.681 29.29C219.681 27.012 220.208 25.04 221.262 23.374C222.316 21.674 223.71 20.382 225.444 19.498C227.178 18.58 229.014 18.121 230.952 18.121C232.72 18.121 234.284 18.359 235.644 18.835C237.004 19.311 238.177 19.974 239.163 20.824L236.562 24.241C235.984 23.765 235.253 23.34 234.369 22.966C233.519 22.592 232.533 22.405 231.411 22.405C230.221 22.405 229.133 22.711 228.147 23.323C227.161 23.901 226.379 24.717 225.801 25.771C225.223 26.791 224.934 27.964 224.934 29.29C224.934 30.548 225.223 31.721 225.801 32.809C226.413 33.863 227.246 34.696 228.3 35.308C229.354 35.92 230.561 36.226 231.921 36.226C232.805 36.226 233.621 36.107 234.369 35.869C235.117 35.597 235.78 35.223 236.358 34.747L239.01 38.011Z" fill="black"/>
<path d="M245.025 18.631H250.278V40H245.025V18.631ZM244.719 10.981C244.719 10.165 245.042 9.485 245.688 8.941C246.334 8.397 247.031 8.125 247.779 8.125C248.561 8.125 249.258 8.397 249.87 8.941C250.482 9.485 250.788 10.165 250.788 10.981C250.788 11.797 250.482 12.477 249.87 13.021C249.258 13.531 248.561 13.786 247.779 13.786C247.031 13.786 246.334 13.531 245.688 13.021C245.042 12.477 244.719 11.797 244.719 10.981Z" fill="black"/>
<path d="M266.688 26.332L271.584 18.631H276.837L268.575 30.157L266.688 26.332ZM277.704 40H271.431L255.111 18.631H261.588L277.704 40ZM266.076 32.299L260.67 40H255.366L263.628 28.78L266.076 32.299Z" fill="black"/>
<path d="M11.6 18.8824C11.6 17.2905 12.8984 16 14.5 16C16.1016 16 17.4 17.2905 17.4 18.8824V41.1176C17.4 42.7095 16.1016 44 14.5 44C12.8984 44 11.6 42.7095 11.6 41.1176V18.8824Z" fill="#BC1637"/>
<path d="M2.9 32.4706C1.29838 32.4706 5.42115e-08 31.1801 0 29.5882C-5.42113e-08 27.9964 1.29837 26.7059 2.9 26.7059H26.1C27.7016 26.7059 29 27.9964 29 29.5882C29 31.1801 27.7016 32.4706 26.1 32.4706L2.9 32.4706Z" fill="#BC1637"/>
</svg>
